<svg height="1068" viewBox="0 0 1440 1068" width="1440" xmlns="http://www.w3.org/2000/svg" xmlns:xlink="http://www.w3.org/1999/xlink"><linearGradient id="a" x1="100%" x2="0%" y1="17.96875%" y2="100%"><stop offset="0" stop-color="#57e4b1"/><stop offset="1" stop-color="#54ccbb"/></linearGradient><linearGradient id="b" x1="49.989737%" x2="49.989737%" y1="100%" y2="-.007095%"><stop offset="0" stop-color="#41767e"/><stop offset=".69" stop-color="#273638"/></linearGradient><linearGradient id="c"><stop offset="0" stop-color="#3d71c0"/><stop offset="1" stop-color="#74beea"/></linearGradient><linearGradient id="d" x1="0%" x2="100.000227%" xlink:href="#c" y1="50.005348%" y2="50.005348%"/><linearGradient id="e" x1="49.952607%" x2="49.952607%" y1="0%" y2="100%"><stop offset="0" stop-color="#41767e"/><stop offset=".79" stop-color="#273638"/></linearGradient><linearGradient id="f" x1=".00393%" x2="99.963298%" y1="49.997256%" y2="49.997256%"><stop offset="0" stop-color="#71bfb5"/><stop offset=".88" stop-color="#8de5b2"/></linearGradient><linearGradient id="g" x1="-.008527%" x2="100%" xlink:href="#c" y1="49.996457%" y2="49.996457%"/><linearGradient id="h" x1="77.75944%" x2="22.553681%" y1="91.83122%" y2="8.48764%"><stop offset=".32" stop-color="#67aea4"/><stop offset="1" stop-color="#90e9b4"/></linearGradient><linearGradient id="i"><stop offset="0" stop-color="#67aea4"/><stop offset="1" stop-color="#8de5b2"/></linearGradient><linearGradient id="j" x1="77.75944%" x2="22.553681%" xlink:href="#i" y1="91.83122%" y2="8.48764%"/><linearGradient id="k" x1="-8111.3728%" x2="-7953.24314%" xlink:href="#i" y1="-32591.3843%" y2="-32591.3843%"/><linearGradient id="l" x1="-8117.15853%" x2="-7958.5115%" xlink:href="#i" y1="-32607.5024%" y2="-32607.5024%"/><linearGradient id="m" x1="-6938.39989%" x2="-6772.96769%" xlink:href="#i" y1="-26068.6457%" y2="-26068.6457%"/><linearGradient id="n" x1="-6587.89499%" x2="-6420.70977%" xlink:href="#i" y1="-24262.8344%" y2="-24262.8344%"/><linearGradient id="o" x1="-6901.01523%" x2="-6721.16751%" xlink:href="#i" y1="-22780.3262%" y2="-22780.3262%"/><linearGradient id="p" x1="-7089.83378%" x2="-6904.39667%" xlink:href="#i" y1="-22041.2307%" y2="-22041.2307%"/><linearGradient id="q" x1="-7183.08905%" x2="-7008.04616%" xlink:href="#i" y1="-24361.2445%" y2="-24361.2445%"/><linearGradient id="r" x1="-8003.827%" x2="-7832.70484%" xlink:href="#i" y1="-27875.3333%" y2="-27875.3333%"/><linearGradient id="s" x1="-8976.67084%" x2="-8820.88799%" xlink:href="#i" y1="-36405.0082%" y2="-36405.0082%"/><linearGradient id="t"><stop offset="0" stop-color="#4d88cc"/><stop offset=".73" stop-color="#74beea"/></linearGradient><linearGradient id="u" x1="92.715892%" x2="5.483353%" xlink:href="#t" y1="74.142888%" y2="25.250311%"/><linearGradient id="v" x1="92.715892%" x2="5.483353%" xlink:href="#c" y1="74.142888%" y2="25.250311%"/><linearGradient id="w" x1="-8033.16116%" x2="-7933.16116%" xlink:href="#t" y1="-34681.97310000001%" y2="-34681.97310000001%"/><linearGradient id="x" x1="-8033.16116%" x2="-7933.16116%" xlink:href="#c" y1="-34681.97310000001%" y2="-34681.97310000001%"/><g fill="none" fill-rule="evenodd" transform="translate(-11)"><path d="m5 170c269-81 983 76 1201 38 145.33333-25.333333 229-71.333333 251-138l-6 998h-1450.0261507" fill="url(#a)"/><g transform="translate(46)"><path d="m34.3269853 108.197846s-.4007353-14.5427647 6.94875-26.4268297c7.3494853-11.8840651 11.0843382-10.8109756 11.0843382-24.0243903 0 0 4.007353 21.0934147-4.4080882 28.8292683-8.4154412 7.7358537-11.8858088 14.0142277-13.625 21.6219517z" fill="#93edb5" fill-rule="nonzero"/><path d="m33.7980147 108.197846s-6.2835294-5.069147-10.4191176-8.6728053c-4.1355883-3.6036586-10.1546324-9.8339838-9.8901471-23.0874391 0 0-6.13926471 17.8821545 2.1399265 26.1545524 8.2791911 8.272399 17.3678676 6.006098 20.0367647 9.345488z" fill="#93edb5" fill-rule="nonzero"/><path d="m36.6031618 113.939675s1.2022058-4.804878 10.1466176-8.544675 13.76125-18.6829675 10.4191177-29.8943496c0 0-1.3544853 11.9641463-7.7422059 15.4797155-9.2169118 5.1171951-15.6286765 17.6178861-12.8235294 22.9593091z" fill="#93edb5" fill-rule="nonzero"/><path d="m38.4705882 118.344146s2.8051471-6.670772 8.8161765-9.073211 14.0257353-5.077155 16.2938971-18.0182927c0 0 3.3421323 14.2784957-7.3414706 20.2845937-10.683603 6.006097-16.5663971 5.741829-16.8308824 9.073211z" fill="#93edb5" fill-rule="nonzero"/><path d="m37.9336029 118.608415s-3.2058823-2.930976-10.0183823-3.603659-7.0128677.952968-15.2279412-9.073211c-7.21323528-8.8089434-12.6872794-10.8109759-12.6872794-10.8109759s8.27919118 9.8740239 12.4227941 20.0203249c4.143603 10.146301 16.5663971 5.205285 20.57375 4.54061 4.007353-.664675 5.6102941.400407 5.6102941.400407z" fill="#93edb5" fill-rule="nonzero"/><path d="m42.7424265 131.821829c1.5225151-4.044756 4.6021618-7.312214 8.5516911-9.073211 6.8125-3.203252 15.3641912-10.947114 17.632446-18.955244 0 0 .136157 14.550772-10.0184754 21.357683-10.1546323 6.80691-8.4154411 2.538577-15.7649264 8.808943z" fill="#93edb5" fill-rule="nonzero"/><path d="m4.67257353 119.008821s4.54433823 10.947114 18.16933827 8.408537c13.625-2.538578 17.6323529.672683 19.9005147 4.404471l.8014706 3.203252c-2.0775807-2.931012-5.700204-4.347397-9.2169118-3.603658-6.1392647 1.201219-24.1723529 3.739797-29.65441177-12.412602z" fill="#93edb5" fill-rule="nonzero"/><path d="m45.8200735 139.701829c2.4821335-2.148816 5.2165051-3.988162 8.1429412-5.477561 4.4080882-2.130162 13.2242647-6.670772 16.7026471-16.544796 0 0 1.7311764 11.371544-7.4857353 18.715-9.2169118 7.343455-14.5547059 2.634674-17.496103 6.638739z" fill="#93edb5" fill-rule="nonzero"/><path d="m8.41544118 133.96s5.28970592 7.071179 17.23161762 5.381463c11.9419118-1.689715 10.8118383-.16817 19.62.720732l.7133088 1.945976s-5.5221323 1.017032-12.3186029 3.019065c-6.7964706 2.002032-15.6527206.944959-25.24632352-11.067236z" fill="#93edb5" fill-rule="nonzero"/><path d="m47.82375 148.150407s-6.9086765-2.40244-11.7175-.576586-10.5954412 6.846951-20.4775735-.89691c0 0 5.7786029 12.012195 16.1977206 8.568699 10.4191176-3.443496 13.625-5.301382 16.3179411-4.764838z" fill="#93edb5" fill-rule="nonzero"/><path d="m48.6332353 150.841138-.8014706-2.730772c1.8985931-1.847253 4.3233242-3.061422 6.9407353-3.475529 4.1436029-.528536 10.0183824-.928943 13.4967647-4.933008 3.4783824-4.004065 5.2095588-10.146301 5.2095588-10.146301s4.2558089 14.13435-8.8161764 18.138415c-10.6595589 3.251301-14.17-.056057-16.0294118 3.147195z" fill="#93edb5" fill-rule="nonzero"/><path d="m49.0259559 153.043374s-7.2132353-26.226626-11.2205883-35.636179c-2.3282981-5.394467-4.2700739-10.947404-5.8106617-16.61687" stroke="#71bfb5" stroke-width="1.12"/><g fill-rule="nonzero"><path d="m31.5699265 104.257846c.2477072.411101.7476971.59548 1.2033031.443736s.7448798-.598995.6961822-1.076379c-.5129412-4.5165851-.7133089-11.8440241 1.7632353-19.0913819 4.3920588-12.8610569-5.3297795-27.3878048-12.5269853-32.3928861 3.9774166 5.6676874 5.2501717 12.7998167 3.4783823 19.4917886-2.6127941 10.2423984-1.0178676 21.9422764 5.3858824 32.6251224z" fill="#93edb5"/><path d="m69.1909559 181.207967 54.5000001-33.385894s-35.6093384-4.236301-41.4119854 0c-5.8026471 4.236301-13.0880147 33.385894-13.0880147 33.385894z" fill="#b1c0c8" opacity=".55"/><path d="m215.595588 150.112398s6.8125 10.410569-4.271838 15.343578c-11.084338 4.933008-55.702206 16.152398-59.180588 17.089349-3.478383.936951-6.67625.928943-7.076986 4.404472-.400735 3.475528-.264485 4.933008-1.739191 5.069146s-2.532647-2.402439-2.805147-1.465488c-.2725.936952-1.202206 5.605691-1.867426 5.733821-.665221.128131-1.602941-2.002032-2.268162-5.733821l-.673235-3.739796s-.929706 5.869959-.801471 7.471585-.52897 1.601626-1.065956 1.737764c-.536985.136138-1.867426-3.739797-1.602941-12.276463.264485-8.536667.536985-10.282439 2.404412-11.347521 1.867426-1.065081 14.42647-5.469552 14.42647-5.469552z" fill="#b1c0c8" opacity=".55"/><path d="m147.334338 65.1541463s11.893824 1.8739025 16.50228-4.06813c4.608456-5.9420326-1.538824-10.6347968-6.483897-10.0742277-5.488962.648793-11.049297-.279021-16.029412-2.6747154-5.009191-2.5305691-8.078824-7.7358537-15.292059-6.4065041s-7.277353 8.6087398-6.275515 11.0111789c0 0-10.290882 6.0781707-6.8125 14.8871138 3.478383 8.8089431 8.744044 8.8730081 8.744044 8.8730081s14.626839-12.4126016 25.647059-11.5477236z" fill="url(#b)"/><path d="m136.402279 166.056585s-5.441985 2.026057-6.307573 5.029106c-1.130074 3.899959-2.18 15.559797-1.683088 17.738008.496911 2.178212 2.011691-.304309 1.955588-1.761788.111969-2.472867.379655-4.936236.80147-7.375488.120221-.312317.120221 1.273292.120221 1.273292s.240441 11.771952 1.707132 11.467643c1.466692-.304309.569045-5.245325.609118-7.207317.074548-1.948234.425348-3.876047 1.041912-5.725813 0 0 .488897 13.045244 2.131912 12.981179 1.643014-.064066.913676-4.508578.609117-8.232358-.240254-2.016387.075691-4.060035.913677-5.91 0 0 1.530809 10.666829 3.205882 9.874024 2.107868-1.009024-1.218235-4.508577-.545-11.515691 0 0 3.782941-.552561 4.6325-2.506545.849559-1.953983 3.782941-2.987032 3.782941-2.987032l-10.411103-6.230325z" fill="#ebb6b2"/><path d="m141.595809 95.7852439s14.226103-3.203252 21.038603-4.004065 12.623162-.2002033 21.439338 11.2113821c8.816176 11.411585 28.852941 42.242886 31.257353 44.845528 2.404412 2.602643 3.205882 12.813009-7.613971 15.615854-10.819853 2.802846-58.70772 13.413618-58.70772 13.413618l-13.424633-14.214431 40.875-15.215447s-28.652573.200203-47.286764.200203-47.6875003.60061-47.6875003.60061 13.0238971-47.047764 21.6397063-47.648374c8.615808-.6006098 29.053308 0 38.470588-4.8048781z" fill="url(#d)"/><path d="m101.321912 111.000691s-4.8809561 21.133455-2.3402944 36.909472l-16.293897-.072074s5.6102941-31.632113 18.6341914-36.837398z" fill="#273638" opacity=".3"/><path d="m132.795662 97.2267073 8.816176-1.4414634-12.422794 51.8526421-11.821691.200203-18.0330883-43.243902v-6.6067073c11.1328803-.8366564 22.3019533-1.0905944 33.4613973-.7607724z" fill="url(#e)"/><path d="m147.334338 65.1541463s-1.939559 8.8089431-.585073 15.8400813c0 0 0 .7287399-1.354486.5205285-1.354485-.2082114-2.083823-.9369512-2.404411-.4164228-.365136.8121952-.678338 1.6467165-.937721 2.4985366 0 0-4.584412-.3123171-6.876618-3.4354878.051048 2.9477896 2.196238 5.4411669 5.105368 5.9340244.239148.0564488.433771.2294304.517748.4601771.083977.2307468.046017.4882343-.100983.6849855-.520956.800813-.416765 2.8028455-1.354486 3.1151626-.93772.3123171-4.48022-.6246341-6.147279-1.1371545-1.278124 2.1369956-2.22142 4.4568422-2.797132 6.8789838-.312574 1.665691 2.404411 1.1451626 2.404411 1.1451626s.416765 7.0711784-7.49375 7.4876014c-7.910514.416423-13.224264-6.0301217-13.953602-7.0711787-.478826-.7372251-.83098-1.5492219-1.041912-2.402439 0 0 6.139264-9.6097561 7.702132-14.4626829.94199-2.8430169.871202-5.9240238-.200368-8.7208537l6.876618-9.2654065s2.500588.5205285 3.125735 2.1862195c.625147 1.6656911 1.971618.6246342 2.284192-2.6026422.312573-3.2272765 5.001176-4.1562195 7.085-3.2032521 2.083823.9529675 5.361838 5.8619513 10.146617 5.9660569z" fill="#ebb6b2"/><path d="m176.459779 147.437683 4.007353-1.601626s-12.823529-21.485813-21.37522-32.296789c0 0 8.551691 14.414634 9.080662 19.756057.52897 5.341423-.400736 9.874025 0 14.014228z" fill="#273638" opacity=".3"/><ellipse cx="142.92625" cy="115.132886" fill="#273638" rx="1.867426" ry="1.865894"/><ellipse cx="138.790662" cy="135.697764" fill="#273638" rx="1.867426" ry="1.865894"/><path d="m133.212426 89.2185772s-4.111544-2.402439-5.610294-4.5085772c0 0 .801471 5.4054878 3.470368 9.0091463-.032059-.0240243 1.170147-3.8038617 2.139926-4.5005691z" fill="#df807a"/><ellipse cx="140.781605" cy="73.335077" fill="#29373c" rx="1.298382" ry="1" transform="matrix(.24107506 -.97050647 .97050647 .24107506 35.670504 192.285278)"/><path d="m143.711691 71.4485366.649191-1.4895122c-.394342-1.2798599-1.391574-2.2852505-2.668897-2.6907317-2.075809-.5765854-4.095514 1.6736992-4.095514 1.6736992 1.28042-.4163479 2.651913-.4662803 3.959264-.1441464 1.143493.4317941 1.966764 1.443984 2.155956 2.6506911z" fill="#29373c"/><path d="m107.797794 83.4447154s0-13.2854878 4.672574-18.4186991c5.249632-5.7738618 8.752058-5.5416261 10.154632-5.6777643.873603-.0800813 7.012868 9.5456911 0 15.2875204 0 0-5.610294-.2882927-7.012868 4.06813-1.266323 3.8679269-2.16397 12.2204065 1.065956 16.1523984 2.476544 3.0030488 4.544338 1.4654878 6.612133 1.4014228 2.067794-.0640651 4.20772 3.0030488 4.48022 7.3354474.2725 4.332398-1.875441 7.27939-4.34397 7.543658-2.46853.264269-12.82353-4.052114-14.795147-16.6489022-1.298383-8.2804065-.83353-11.0432114-.83353-11.0432114z" fill="url(#f)"/></g><g opacity=".4" stroke="#41767e" stroke-width=".5" transform="translate(119.419118 59.260163)"><path d="m.40073529.08808943s6.61213236 8.20833333.13625 16.35260167"/><path d="m2.00367647 36.7252846s2.75705882 1.9379674 3.14176471 7.6077235c.46485294 7.0071139-4.34397059 7.5436586-4.34397059 7.5436586"/></g><path d="m90.9348529 98.684187s7.2933824-10.1943496 10.3149261-12.3805691c3.021545-2.1862195 6.684265-3.4595122 9.216912-3.203252 2.532647.2562601 4.343971.6646748 5.081324 1.4014227.737353.736748 1.466691 2.0020325 1.001838 2.402439s-.536985-.1361382-.536985-.1361382.601103 1.0010163.400735 1.601626c-.036263.1561213-.137672.2892672-.278605.3657986-.140934.0765313-.307912.0891282-.458748.034608 0 0 1.073971.7367479 1.202206 1.4734959s-.400735.5285366-1.130074.5285366c-.729338 0-1.001838-.4644716-2.877279-.0640651-.88955.1630448-1.761687.4097242-2.604779.736748 0 0 5.682426-.4004065 6.011029.5285366s-2.067794.9209349-3.334118.9209349c-2.171602.3479742-4.218452 1.2437698-5.946911 2.6026423-1.602942 1.4014228-2.139927 1.4014228-4.143603 2.2022358-2.003677.800813-3.4703681 4.868943-3.4703681 4.868943s-5.7385294-1.393415-8.4475-3.883943z" fill="#ebb6b2" fill-rule="nonzero"/><path d="m90.9348529 98.684187 13.1922061 4.70878s-16.2297796 53.254066-21.0386031 63.464431c-4.8088235 10.210366-12.5590441 17.577846-23.84375 13.814025-10.819853-3.603659-12.8235294-11.011179-6.4117647-25.025407 6.2995588-13.781992 38.1019117-56.961829 38.1019117-56.961829z" fill="url(#g)" fill-rule="nonzero"/><path d="m116.012868 86.7760976c-1.177753-1.4189239-2.968658-2.1824164-4.808824-2.0500813-1.971764.0033353-3.913332.4842074-5.658382 1.4014227 1.819959-.5630384 3.706365-.8834643 5.610294-.9529675 1.760414-.0767959 3.488074.4929211 4.856912 1.6016261z" fill="#c48674" fill-rule="nonzero"/><path d="m115.67625 88.7781301c-1.734453-.8646239-3.695686-1.1669659-5.610294-.8648781-3.141765.4965041-3.911177 1.0330488-4.007353 1.0971139 1.281466-.9618161 2.810333-1.5395315 4.408088-1.6656911 1.932754-.1361922 3.856584.3675897 5.474044 1.4334553z" fill="#c48674" fill-rule="nonzero"/><g opacity=".4" transform="translate(98.580882)"><ellipse cx="16.694632" cy="15.471707" fill="url(#h)" fill-rule="nonzero" rx="12.983824" ry="12.973171"/><g opacity=".44"><ellipse cx="16.694632" cy="15.471707" fill="url(#j)" fill-rule="nonzero" rx="12.983824" ry="12.973171"/><g stroke="#fff" stroke-width=".512"><path d="m2.22808824 16.0162602c2.4913874 2.8582653 5.33211254 5.3926421 8.45551466 7.5436585 6.1633089 4.2443089 4.7366912 9.0011382 4.7366912 9.0011382" fill="url(#k)" fill-rule="nonzero"/><path d="m.36867647 16.6889431c2.36581585 2.935916 5.14667554 5.5121704 8.25514706 7.6477642 6.15529407 4.2523171 4.94507357 8.8970325 4.94507357 8.8970325" fill="url(#l)" fill-rule="nonzero"/><path d="m2.62882353 12.0121951s5.00117647 6.1102033 9.25698527 9.2894309c6.9006618 5.1412195 6.0270588 10.4105691 6.0270588 10.4105691"/><g fill-rule="nonzero"><path d="m4.22375 8.73686992s.08014706 2.33036588 8.2391176 9.29743898c6.6121324 5.6457318 7.5258089 9.8419919 7.3575 11.3395122" fill="url(#m)"/><path d="m6.21941176 6.18227642c2.41335004 4.51341908 5.67948064 8.51658538 9.61764704 11.78796748 6.6682353 5.6537398 6.868603 10.3625203 6.868603 10.3625203" fill="url(#n)"/><path d="m9.33713235 3.57963415s.16830883 5.34943089 6.28352945 10.75491865c6.1152206 5.4054879 9.0245588 7.4635773 9.5054411 12.8130082" fill="url(#o)"/><path d="m12.7594118 1.55357724s-2.3402942 5.03711382 4.576397 10.72288616c6.0591177 4.9730488 9.4172794 7.3594716 10.4591912 13.6138212" fill="url(#p)"/><path d="m14.8913235 1.05707317s-1.1461029 4.30036585 2.7410294 8.27239837c3.8871324 3.97203256 8.4875736 3.52357726 12.3346324 13.73394306" fill="url(#q)"/><path d="m17.6323529.08808943c-.7694157 2.53165879-.1242827 5.28115342 1.691103 7.20731707 3.7669117 4.2763415 6.8125 2.6346748 11.661397 12.0121951" fill="url(#r)"/><path d="m19.4116176.44845529s-.5610294 3.87593495 2.3483089 6.20630081c3.6146323 2.90695122 4.8809559 1.2252439 9.7859559 8.5046341" fill="url(#s)"/></g></g></g></g><g opacity=".4" transform="translate(63.316176 34.434959)"><ellipse cx="9.216912" cy="9.866016" fill="url(#u)" fill-rule="nonzero" rx="8.263162" ry="8.256382"/><g opacity=".44"><ellipse cx="9.216912" cy="9.866016" fill="url(#v)" fill-rule="nonzero" rx="8.263162" ry="8.256382"/><g stroke="#fff" stroke-width=".5"><path d="m1.19419118 14.4146341c2.24127871.8948934 4.58682174 1.5029965 6.98080882 1.8098374 4.7286765.6166261 5.3057353 3.7237805 5.3057353 3.7237805"/><path d="m.32860294 15.3035366c2.18842561.9752793 4.50785304 1.6254812 6.88463235 1.9299593 4.72066181.6166261 5.38588231 3.5956504 5.38588231 3.5956504"/><path d="m.24845588 12.0121951c2.55844992 1.1085825 5.21840921 1.966795 7.94257353 2.5626016 5.40992649.9049187 6.41176469 4.1402033 6.41176469 4.1402033"/><path d="m.19235294 9.68182927s.72132353 1.29731703 7.37352941 2.86691053c5.38588235 1.2732927 7.13308825 3.3874391 7.46970585 4.2763415"/><path d="m.57705882 7.65577236c2.67609938 1.8543007 5.68627091 3.17322964 8.86426471 3.88394304 5.41794117 1.2652846 6.90066177 3.8679269 6.90066177 3.8679269"/><path d="m1.60294118 5.27735772s1.65102941 2.97902439 6.6842647 4.26032521c5.03323532 1.28130077 7.29338232 1.60162597 9.12875002 4.50056907"/><path d="m2.93338235 3.13117886s.1282353 3.5395935 5.7144853 4.74081301c4.88095585 1.04906504 7.47772055 1.43345528 9.88213235 4.64471543"/><path d="m4.00735294 2.23426829c.57186821 1.87968585 2.05513104 3.34365798 3.9432353 3.89195122 3.34213236 1.12113821 5.83470586-.4804878 10.98014706 4.18024389"/><path d="m5.26566176.88890244c.30695648 1.64714687 1.4667474 3.00725832 3.04558824 3.57162602 3.3822059 1.32134146 4.6325-.49650407 10.1065441 3.41947154"/><path d="m6.41176471.56857724c.51787305 1.40006872 1.6881138 2.45870129 3.13375 2.83487804 2.89330879.59260163 3.12573529-.72873983 8.01470589 1.97"/></g></g></g><g opacity=".3" transform="translate(185.139706 56.857724)"><ellipse cx="9.192868" cy="8.929065" fill="url(#w)" fill-rule="nonzero" rx="7.758235" ry="7.75187"/><g opacity=".44"><ellipse cx="9.192868" cy="8.929065" fill="url(#x)" fill-rule="nonzero" rx="7.758235" ry="7.75187"/><g stroke="#fff" stroke-width=".5"><path d="m1.66705882 13.1813821c2.10491733.8399761 4.30776022 1.4104156 6.55602942 1.6977236 4.43213236.5765854 4.97713236 3.4915447 4.97713236 3.4915447"/><path d="m.84955882 14.0302439c2.0589884.916499 4.24045552 1.5288588 6.47588236 1.8178455 4.44014702.5685773 5.06529412 3.3714228 5.06529412 3.3714228"/><path d="m.80147059 10.9310976c2.40378223 1.0396077 4.90267587 1.8441759 7.46169117 2.402439 5.07330884.8488618 6.04308824 3.8839431 6.04308824 3.8839431"/><path d="m.72132353 8.75288618s.68125 1.21723577 6.92470588 2.69073172c5.05727939 1.2012195 6.69227939 3.203252 7.01286769 4.004065"/><path d="m1.09 6.84695122c2.50849627 1.74193973 5.33087178 2.98200462 8.31125 3.65170728 5.0893382 1.1852033 6.4838971 3.627683 6.4838971 3.627683"/><path d="m2.03573529 4.61268293s1.54683824 2.80284553 6.27551471 4.00406504c4.7286765 1.20121951 6.8365441 1.50552843 8.5677206 4.22028453"/><path d="m3.29404412 2.60264228s.12022059 3.32337398 5.36183823 4.45252032c4.58441175.985 7.02088235 1.33735773 9.28102945 4.3644309"/><path d="m4.29588235 1.76178862c.53864569 1.76919545 1.93907603 3.14435124 3.71882353 3.65170731 3.14176472 1.05707318 5.47404412-.44845528 10.31492652 3.93199187"/><path d="m5.49007353.49650407c.2832016 1.54729449 1.37074293 2.82624379 2.85323529 3.3554065 3.20588238 1.24126016 4.34397058-.46447155 9.48941178 3.20325203"/><path d="m6.53198529.20020325c.4889741 1.31173593 1.58630551 2.30360275 2.94139706 2.65869919 2.71698525.5605691 2.93338235-.68069106 7.52580885 1.84987805"/></g></g></g></g></g></svg>